<?xml version="1.0" standalone="no"?>
<!DOCTYPE svg PUBLIC "-//W3C//DTD SVG 20010904//EN"
 "http://www.w3.org/TR/2001/REC-SVG-20010904/DTD/svg10.dtd">
<svg version="1.0" xmlns="http://www.w3.org/2000/svg"
 width="300.000000pt" height="79.000000pt" viewBox="0 0 300.000000 79.000000"
 preserveAspectRatio="xMidYMid meet">
<metadata>
Created by potrace 1.10, written by Peter Selinger 2001-2011
</metadata>
<g transform="translate(0.000000,79.000000) scale(0.100000,-0.100000)"
fill="#000000" stroke="none">
<path d="M150 610 l0 -59 180 -3 180 -3 0 63 0 62 -180 0 -180 0 0 -60z m330
0 l0 -30 -150 0 -150 0 0 30 0 30 150 0 150 0 0 -30z"/>
<path d="M560 400 l0 -270 80 0 80 0 0 205 0 205 53 0 c29 0 58 -5 65 -12 9
-9 12 -68 12 -205 l0 -193 76 0 75 0 -3 229 c-3 229 -3 229 -28 257 -44 47
-75 54 -250 54 l-160 0 0 -270z m325 230 c22 -5 50 -21 63 -35 21 -25 22 -33
22 -231 l0 -204 -39 0 -38 0 -7 92 c-3 50 -6 131 -6 180 0 81 -2 91 -25 113
-19 20 -34 25 -76 25 -88 0 -89 -2 -89 -222 l0 -188 -45 0 -45 0 0 240 0 240
123 0 c67 0 140 -5 162 -10z"/>
<path d="M1040 610 l0 -60 175 0 175 0 0 60 0 60 -175 0 -175 0 0 -60z m320 0
l0 -30 -140 0 -140 0 0 30 0 30 140 0 140 0 0 -30z"/>
<path d="M1450 610 l0 -60 104 0 c110 0 136 -9 136 -49 0 -34 -21 -41 -132
-41 l-108 0 0 -60 0 -60 104 0 c131 0 136 -5 136 -127 l0 -83 70 0 70 0 0 84
c0 98 -10 132 -48 163 l-27 23 23 15 c55 39 64 114 21 183 -37 62 -68 72 -216
72 l-133 0 0 -60z m274 16 c46 -19 66 -52 66 -107 0 -36 -6 -54 -30 -84 -32
-40 -30 -53 9 -89 18 -16 21 -31 21 -103 l0 -83 -34 0 -34 0 -3 79 c-4 67 -8
83 -28 105 -23 24 -30 26 -118 26 l-93 0 0 30 0 30 95 0 c110 0 135 14 135 74
0 58 -34 76 -141 76 l-89 0 0 30 0 30 105 0 c68 0 118 -5 139 -14z"/>
<path d="M2081 659 c-126 -37 -209 -179 -181 -313 20 -95 84 -171 172 -202 52
-18 169 -18 213 0 l35 15 0 80 0 79 -52 -29 c-86 -47 -161 -35 -209 33 -46 64
-21 169 49 211 23 13 52 17 121 17 l91 0 0 60 0 60 -102 -1 c-57 0 -118 -5
-137 -10z m199 -44 c0 -23 -4 -25 -47 -25 -68 0 -118 -17 -159 -52 -48 -42
-64 -77 -64 -141 0 -95 71 -167 165 -167 25 0 59 7 75 15 l30 16 0 -45 0 -45
-46 -7 c-116 -17 -218 20 -271 100 -30 44 -33 55 -33 126 0 92 10 123 53 168
58 61 110 79 225 81 70 1 72 0 72 -24z"/>
<path d="M2370 575 c0 -113 11 -146 68 -197 84 -75 210 -77 298 -5 56 46 74
95 74 205 l0 92 -70 0 -70 0 0 -84 c0 -79 -2 -86 -26 -105 -36 -28 -85 -27
-112 2 -19 20 -22 35 -22 105 l0 82 -70 0 -70 0 0 -95z m110 -1 c0 -101 35
-144 115 -144 24 0 45 9 66 28 32 28 35 42 38 140 l1 42 41 0 41 0 -4 -89 c-3
-82 -5 -92 -34 -128 -76 -95 -242 -92 -316 4 -26 33 -28 44 -28 125 l0 88 40
0 40 0 0 -66z"/>
<path d="M150 298 l0 -168 180 0 180 0 0 65 0 65 -115 0 -115 0 0 40 0 40 115
0 115 0 0 63 0 62 -180 0 -180 0 0 -167z m330 102 l0 -30 -98 0 c-63 0 -102
-4 -110 -12 -16 -16 -16 -100 0 -116 8 -8 47 -12 110 -12 l98 0 0 -35 0 -35
-150 0 -150 0 0 135 0 135 150 0 150 0 0 -30z"/>
<path d="M2160 465 c-1 0 -2 -28 -3 -63 l-2 -62 83 0 82 0 0 63 0 62 -80 0
c-44 0 -80 0 -80 0z m120 -65 c0 -29 -2 -30 -45 -30 -43 0 -45 1 -45 30 0 29
2 30 45 30 43 0 45 -1 45 -30z"/>
<path d="M1040 295 l0 -165 175 0 175 0 0 65 0 65 -110 0 -110 0 0 40 0 40
110 0 110 0 0 60 0 60 -175 0 -175 0 0 -165z m320 100 c0 -25 -1 -25 -92 -25
-106 0 -128 -11 -128 -68 0 -61 20 -72 127 -72 l93 0 0 -35 0 -35 -140 0 -140
0 0 130 0 130 140 0 140 0 0 -25z"/>
<path d="M2455 195 l0 -65 130 0 130 0 0 65 0 65 -130 0 -130 0 0 -65z m225 0
l0 -35 -95 0 -95 0 0 35 0 35 95 0 95 0 0 -35z"/>
</g>
</svg>
