<svg xmlns="http://www.w3.org/2000/svg" width="512" height="512" viewBox="0 0 512 512">
  <defs>
    <linearGradient id="grad" x1="0%" y1="0%" x2="100%" y2="100%">
      <stop offset="0%" style="stop-color:#8b5cf6"/>
      <stop offset="100%" style="stop-color:#7c3aed"/>
    </linearGradient>
  </defs>
  <rect width="512" height="512" fill="url(#grad)" rx="128"/>
  <g transform="translate(106, 106) scale(0.6)" fill="#ffffff">
    <path d="M150 610 l0 -60 180 0 180 0 0 60 0 60 -180 0 -180 0 0 -60z"/>
    <path d="M150 295 l0 -165 180 0 180 0 0 65 0 65 -115 0 -115 0 0 40 0 40 115 0 115 0 0 60 0 60 -180 0 -180 0 0 -165z"/>
  </g>
</svg>
