 <svg  version="1.0" xmlns="http://www.w3.org/2000/svg"  width="300.000000pt" height="79.000000pt" viewBox="0 0 300.000000 79.000000"  preserveAspectRatio="xMidYMid meet">  <g transform="translate(0.000000,79.000000) scale(0.100000,-0.100000)" fill="#ffffff" stroke="none"> <path d="M150 610 l0 -60 180 0 180 0 0 60 0 60 -180 0 -180 0 0 -60z"/> <path d="M560 400 l0 -270 80 0 80 0 0 205 0 205 53 0 c29 0 58 -5 65 -12 9 -9 12 -68 12 -205 l0 -193 76 0 75 0 -3 229 c-3 229 -3 229 -28 257 -44 47 -75 54 -250 54 l-160 0 0 -270z"/> <path d="M1040 610 l0 -60 175 0 175 0 0 60 0 60 -175 0 -175 0 0 -60z"/> <path d="M1450 610 l0 -60 104 0 c110 0 136 -9 136 -49 0 -34 -21 -41 -132 -41 l-108 0 0 -60 0 -60 104 0 c131 0 136 -5 136 -127 l0 -83 70 0 70 0 0 84 c0 98 -10 132 -48 163 l-27 23 23 15 c55 39 64 114 21 183 -37 62 -68 72 -216 72 l-133 0 0 -60z"/> <path d="M2081 659 c-126 -37 -209 -179 -181 -313 20 -95 84 -171 172 -202 52 -18 169 -18 213 0 l35 15 0 75 c0 42 -2 76 -4 76 -2 0 -28 -11 -58 -25 -60 -28 -94 -31 -142 -11 -98 41 -108 183 -18 251 21 16 48 21 122 25 l95 5 3 58 3 57 -103 -1 c-57 0 -118 -5 -137 -10z"/> <path d="M2370 575 c0 -113 11 -146 68 -197 84 -75 210 -77 298 -5 56 46 74 95 74 205 l0 92 -70 0 -70 0 0 -84 c0 -79 -2 -86 -26 -105 -36 -28 -85 -27 -112 2 -19 20 -22 35 -22 105 l0 82 -70 0 -70 0 0 -95z"/> <path d="M150 295 l0 -165 180 0 180 0 0 65 0 65 -115 0 -115 0 0 40 0 40 115 0 115 0 0 60 0 60 -180 0 -180 0 0 -165z"/> <path d="M1047 453 c-4 -3 -7 -78 -7 -165 l0 -158 175 0 175 0 0 65 0 65 -110 0 -110 0 0 40 0 40 110 0 110 0 0 60 0 60 -168 0 c-93 0 -172 -3 -175 -7z"/> <path d="M2160 400 l0 -60 80 0 80 0 0 60 0 60 -80 0 -80 0 0 -60z"/> <path d="M2460 195 l0 -65 125 0 125 0 0 65 0 65 -125 0 -125 0 0 -65z"/> </g> </svg> 